Coordinates
version=1
nRows=49
nColumns=12
inDegrees=yes

Units are S.I. units (second, meters, Newtons, ...)
Angles are in degrees

endheader
time	SC_y	SC_z	SC_x	AC_y	AC_z	AC_x	GH_y	GH_z	GH_yy	EL_x	PS_y
       0.0              -56.52          31.84          81.86           31.8         -16.05         0.8178          112.7         -13.88           77.0          56.03          124.7
   0.01871              -56.52          31.84          81.85          31.81         -16.05          0.819          112.7         -13.88          76.98          56.02          124.7
   0.03743              -56.51          31.84          81.84          31.81         -16.05         0.8202          112.7         -13.88          76.96          56.02          124.7
   0.05614              -56.51          31.84          81.82          31.81         -16.05         0.8215          112.7         -13.88          76.94          56.01          124.7
   0.07485               -56.5          31.83          81.81          31.81         -16.05         0.8228          112.7         -13.88          76.92          56.01          124.7
   0.09356              -56.49          31.83           81.8          31.82         -16.05         0.8243          112.7         -13.88           76.9           56.0          124.7
    0.1123              -56.48          31.83          81.79          31.82         -16.05         0.8258          112.7         -13.88          76.87           56.0          124.7
     0.131              -56.47          31.82          81.77          31.82         -16.05         0.8275          112.7         -13.87          76.85          55.99          124.7
    0.1497              -56.47          31.82          81.76          31.83         -16.05         0.8293          112.7         -13.87          76.82          55.98          124.7
    0.1684              -56.46          31.81          81.74          31.83         -16.05         0.8312          112.7         -13.87          76.79          55.98          124.7
    0.1871              -56.45          31.81          81.72          31.84         -16.05         0.8332          112.7         -13.87          76.76          55.97          124.7
    0.2058              -56.43           31.8           81.7          31.84         -16.05         0.8354          112.8         -13.87          76.72          55.96          124.8
    0.2246              -56.42           31.8          81.68          31.85         -16.05         0.8378          112.8         -13.87          76.69          55.95          124.8
    0.2433              -56.41          31.79          81.66          31.85         -16.05         0.8404          112.8         -13.87          76.65          55.94          124.8
     0.262              -56.39          31.79          81.64          31.86         -16.05         0.8432          112.8         -13.86           76.6          55.93          124.8
    0.2807              -56.38          31.78          81.61          31.86         -16.05         0.8462          112.8         -13.86          76.56          55.92          124.8
    0.2994              -56.36          31.77          81.58          31.87         -16.05         0.8495          112.8         -13.86           76.5          55.91          124.8
    0.3181              -56.34          31.76          81.55          31.88         -16.05          0.853          112.8         -13.86          76.45          55.89          124.8
    0.3368              -56.32          31.75          81.52          31.89         -16.04         0.8569          112.9         -13.86          76.39          55.88          124.8
    0.3555               -56.3          31.74          81.48           31.9         -16.04         0.8612          112.9         -13.85          76.32          55.86          124.9
    0.3743              -56.28          31.73          81.44          31.91         -16.04         0.8659          112.9         -13.85          76.25          55.85          124.9
     0.393              -56.25          31.72          81.39          31.92         -16.04          0.871          112.9         -13.85          76.17          55.83          124.9
    0.4117              -56.22          31.71          81.34          31.93         -16.04         0.8767          113.0         -13.84          76.08          55.81          124.9
    0.4304              -56.19          31.69          81.29          31.94         -16.04          0.883          113.0         -13.84          75.98          55.78          125.0
    0.4491              -56.16          31.68          81.23          31.96         -16.04           0.89          113.0         -13.84          75.87          55.76          125.0
    0.4678              -56.12          31.66          81.16          31.97         -16.04         0.8979          113.1         -13.83          75.75          55.73          125.0
    0.4865              -56.07          31.64          81.08          31.99         -16.04         0.9066          113.1         -13.83          75.62           55.7          125.1
    0.5052              -56.02          31.62           81.0          32.01         -16.04         0.9165          113.2         -13.82          75.46          55.66          125.1
     0.524              -55.96          31.59           80.9          32.04         -16.03         0.9276          113.2         -13.81          75.29          55.62          125.1
    0.5427               -55.9          31.56          80.79          32.06         -16.03         0.9403          113.3         -13.81          75.09          55.57          125.2
    0.5614              -55.82          31.53          80.67          32.09         -16.03         0.9547          113.4          -13.8          74.87          55.52          125.3
    0.5801              -55.74          31.49          80.52          32.13         -16.03         0.9713          113.5         -13.79          74.61          55.46          125.3
    0.5988              -55.64          31.45          80.36          32.17         -16.02         0.9904          113.6         -13.77          74.32          55.38          125.4
    0.6175              -55.53           31.4          80.16          32.22         -16.02          1.013          113.7         -13.76          73.97           55.3          125.5
    0.6362               -55.4          31.33          79.94          32.27         -16.02          1.039          113.8         -13.74          73.57          55.21          125.6
    0.6549              -55.24          31.26          79.67          32.34         -16.01          1.069          114.0         -13.73          73.09          55.09          125.7
    0.6737              -55.05          31.18          79.35          32.41         -16.01          1.106          114.2          -13.7          72.52          54.96          125.9
    0.6924              -54.83          31.08          78.97          32.51          -16.0          1.149          114.4         -13.68          71.85          54.79          126.1
    0.7111              -54.56          30.96          78.51          32.62         -15.99          1.202          114.7         -13.64          71.02           54.6          126.3
    0.7298              -54.23          30.81          77.95          32.76         -15.98          1.267          115.0          -13.6          70.02          54.36          126.6
    0.7485              -53.82          30.62          77.26          32.92         -15.97          1.347          115.4         -13.56          68.78          54.06          126.9
    0.7672              -53.32          30.39           76.4          33.14         -15.96          1.446          116.0         -13.49          67.24          53.69          127.3
    0.7859              -52.68          30.11          75.31           33.4         -15.94          1.571          116.6         -13.42           65.3          53.23          127.9
    0.8046              -51.86          29.74          73.92          33.74         -15.91           1.73          117.5         -13.32          62.83          52.64          128.5
    0.8234              -50.82          29.27          72.15          34.17         -15.88          1.934          118.5          -13.2          59.66          51.88          129.4
    0.8421              -49.49          28.66          69.88          34.72         -15.84          2.195          119.9         -13.04          55.61          50.91          130.5
    0.8608              -47.78          27.89          66.98          35.43         -15.79          2.529          121.7         -12.83          50.42          49.67          131.9
    0.8795              -45.64          26.92          63.33          36.32         -15.73          2.949          123.9         -12.57           43.9          48.12          133.7
    0.8982              -43.02          25.74          58.88          37.41         -15.65           3.46          126.5         -12.26          35.96          46.22          135.8
